<?xml version="1.0" encoding="utf-8"?>
<!-- Svg Vector Icons : http://www.onlinewebfonts.com/icon -->
<!DOCTYPE svg PUBLIC "-//W3C//DTD SVG 1.1//EN" "http://www.w3.org/Graphics/SVG/1.1/DTD/svg11.dtd">
<svg version="1.1" xmlns="http://www.w3.org/2000/svg" xmlns:xlink="http://www.w3.org/1999/xlink" x="0px" y="0px" viewBox="0 0 1000 1000" enable-background="new 0 0 1000 1000" xml:space="preserve">
<metadata> Svg Vector Icons : http://www.onlinewebfonts.com/icon </metadata>
<g><path d="M892,10H108c-53.9,0-98,44.1-98,98v784c0,53.9,44.1,98,98,98h784c53.9,0,98-44.1,98-98V108C990,54.1,945.9,10,892,10L892,10z M779.3,367.7c-4.9,225.4-147,382.2-362.6,392c-88.2,4.9-151.9-24.5-210.7-58.8c63.7,9.8,147-14.7,191.1-53.9c-63.7-4.9-102.9-39.2-122.5-93.1c19.6,4.9,39.2,0,53.9,0c-58.8-19.6-98-53.9-102.9-132.3c14.7,9.8,34.3,14.7,53.9,14.7c-44.1-24.5-73.5-117.6-39.2-176.4c63.7,68.6,142.1,127.4,269.5,137.2c-34.3-137.2,151.9-210.7,225.4-117.6c34.3-4.9,58.8-19.6,83.3-29.4c-9.8,34.3-29.4,53.9-53.9,73.5c24.5-4.9,49-9.8,68.6-19.6C828.3,328.5,803.8,348.1,779.3,367.7L779.3,367.7z"/></g>
</svg>